# xmcd CD database file
#
# Track frame offsets:
#	150
#	30852
#	50819
#	79813
#	98343
#	121949
#	138369
#	151854
#
# Disc length: 2394 seconds
#
# Revision: 1
# Processed by: cddbd v1.5.1PL0 Copyright (c) Steve Scherf et al.
# Submitted via: CDex 1.51
#
DISCID=54095808
DTITLE=外道 - 秘蔵音源集 その壱 (disc2)
DYEAR=2002
DGENRE=Japanese Rock
TTITLE0=I Wanna Go
TTITLE1=What A Bitch
TTITLE2=Who Who Who
TTITLE3=水金地火木土天回明
TTITLE4=Junkie Monkey Baby
TTITLE5=You And Me
TTITLE6=それで?
TTITLE7=Yellow Monkey
EXTD=YEAR: 2002
EXTT0=
EXTT1=
EXTT2=
EXTT3=
EXTT4=
EXTT5=
EXTT6=
EXTT7=
PLAYORDER=
